HIERARCHY
ROOT Hips
{
  OFFSET 13.6774 106.653 -34.4427
  CHANNELS 6 Xposition Yposition Zposition Zrotation Xrotation Yrotation
  JOINT ToSpine
  {
    OFFSET -2.69724 7.43032 -0.144315
    CHANNELS 3 Zrotation Xrotation Yrotation
    JOINT Spine
    {
      OFFSET -0.0310711 10.7595 1.96963
      CHANNELS 3 Zrotation Xrotation Yrotation
      JOINT Spine1
      {
        OFFSET 19.9056 3.91189 0.764692
        CHANNELS 3 Zrotation Xrotation Yrotation
        JOINT Neck
        {
          OFFSET 25.9749 7.03908 -0.130764
          CHANNELS 3 Zrotation Xrotation Yrotation
          JOINT Head
          {
            OFFSET 9.52751 0.295786 -0.907742
            CHANNELS 3 Zrotation Xrotation Yrotation
            End Site
            {
              OFFSET 16.4037 0.713936 2.7358
            }
          }
        }
        JOINT LeftShoulder
        {
          OFFSET 17.7449 4.33886 11.7777
          CHANNELS 3 Zrotation Xrotation Yrotation
          JOINT LeftArm
          {
            OFFSET 0.911315 1.27913 9.80584
            CHANNELS 3 Zrotation Xrotation Yrotation
            JOINT LeftForeArm
            {
              OFFSET 28.6126 1.18197 -3.53199
              CHANNELS 3 Zrotation Xrotation Yrotation
              JOINT LeftHand
              {
                OFFSET 27.5088 0.0218783 0.327423
                CHANNELS 3 Zrotation Xrotation Yrotation
                End Site
                {
                  OFFSET 18.6038 -0.000155887 0.382096
                }
              }
            }
          }
        }
        JOINT RightShoulder
        {
          OFFSET 17.1009 2.89543 -12.2328
          CHANNELS 3 Zrotation Xrotation Yrotation
          JOINT RightArm
          {
            OFFSET 1.4228 0.178766 -10.211
            CHANNELS 3 Zrotation Xrotation Yrotation
            JOINT RightForeArm
            {
              OFFSET 28.733 1.87905 2.64907
              CHANNELS 3 Zrotation Xrotation Yrotation
              JOINT RightHand
              {
                OFFSET 27.4588 0.290562 -0.101845
                CHANNELS 3 Zrotation Xrotation Yrotation
                End Site
                {
                  OFFSET 17.8396 -0.255518 -0.000602873
                }
              }
            }
          }
        }
      }
    }
  }
  JOINT LeftUpLeg
  {
    OFFSET -5.61296 -2.22332 -10.2353
    CHANNELS 3 Zrotation Xrotation Yrotation
    JOINT LeftLeg
    {
      OFFSET 2.56703 -44.7417 -7.93097
      CHANNELS 3 Zrotation Xrotation Yrotation
      JOINT LeftFoot
      {
        OFFSET 3.16933 -46.5642 -3.96578
        CHANNELS 3 Zrotation Xrotation Yrotation
        JOINT LeftToeBase
        {
          OFFSET 0.346054 -6.02161 12.8035
          CHANNELS 3 Zrotation Xrotation Yrotation
          End Site
          {
            OFFSET 0.134235 -1.35082 5.13018
          }
        }
      }
    }
  }
  JOINT RightUpLeg
  {
    OFFSET -5.7928 -1.72406 10.6446
    CHANNELS 3 Zrotation Xrotation Yrotation
    JOINT RightLeg
    {
      OFFSET -2.57161 -44.7178 -7.85259
      CHANNELS 3 Zrotation Xrotation Yrotation
      JOINT RightFoot
      {
        OFFSET -3.10148 -46.5936 -4.03391
        CHANNELS 3 Zrotation Xrotation Yrotation
        JOINT RightToeBase
        {
          OFFSET -0.0828122 -6.13587 12.8035
          CHANNELS 3 Zrotation Xrotation Yrotation
          End Site
          {
            OFFSET -0.131328 -1.35082 5.13018
          }
        }
      }
    }
  }
}
MOTION
Frames: 10
Frame Time: 0.03333333333333333
0.0000 93.1000 0.0000 59.7220 -54.9076 -26.9082 -70.9922 0.1266 87.9954 70.0831 65.9621 13.9675 7.4716 14.1310 8.9083 -118.1822 20.4555 168.4257 -151.5336 61.8360 -171.2505 -0.8410 -21.9910 -26.8710 -61.1794 40.0790 -147.8915 32.2792 -3.7950 -94.9713 -0.4142 -0.0203 -0.0808 -1.8873 6.5193 34.3061 -102.9004 -30.4373 121.2453 10.3651 -4.8012 68.8059 -0.0341 0.0879 -0.0167 -59.8624 13.5975 113.9372 -1.9437 39.2042 2.3534 1.2696 -8.5666 -1.5631 7.3466 -15.8026 3.0524 -30.3904 -15.8971 78.8058 0.7917 43.0309 -5.8885 -17.0852 5.7512 1.5825 2.4662 -24.4738 8.5957 
0.0000 93.1000 0.0000 62.1644 -48.7724 -24.0295 -70.9950 -0.0790 87.9959 64.8617 66.3793 15.9648 8.1494 13.5974 9.7005 -117.2051 19.0961 161.6557 -149.5186 62.0527 -175.1663 -0.7424 -22.6645 -28.0880 -58.4027 37.5213 -146.7623 32.1027 -4.2138 -96.0153 -0.0627 -0.2316 0.1264 -1.6817 5.9729 35.4249 -109.0298 -25.3465 121.5415 9.1752 -4.0853 66.2134 0.0011 0.3319 0.2723 -56.5966 14.8157 111.2008 -2.4416 41.3131 -5.6466 -0.0732 -11.4603 -1.5281 7.7240 -16.2804 6.1412 -31.0072 -12.6648 91.1671 1.5610 41.2474 3.0593 -10.7139 6.7397 0.7722 3.8758 -25.3119 2.2608 
0.0000 93.1000 0.0000 65.0145 -43.1215 -20.0596 -70.9997 -0.1879 87.9953 64.0711 67.2882 14.3430 8.0138 14.6998 9.3292 -117.1514 19.0823 157.7919 -153.5813 64.0096 -173.2527 -1.5369 -23.3346 -29.9738 -58.7909 32.5704 -142.8781 31.5614 -3.8948 -95.8656 -0.2400 -0.1910 0.3542 -1.9881 5.9511 35.9013 -117.2132 -21.0714 118.0860 7.1957 -3.9477 63.4240 -0.0225 0.2781 0.1640 -51.3790 13.9760 107.9624 -3.8484 45.0785 -5.8092 1.0078 -15.1221 -1.5177 6.6632 -14.8901 5.6601 -31.7646 -13.1093 93.6485 0.7719 39.8557 1.0021 -7.6453 6.8199 0.1965 2.7431 -20.0980 2.8601 
0.0000 93.1000 0.0000 66.8796 -38.0870 -15.7777 -71.0000 -0.4333 87.9946 73.8780 68.7773 8.5578 6.6566 16.8981 7.1446 -115.3391 18.9443 150.8756 -154.3629 65.8474 -172.3303 -1.7990 -23.2193 -30.3511 -56.9947 29.2242 -143.8249 31.9617 -4.5371 -95.8510 -0.4310 -0.4659 0.5552 -2.3140 6.1675 38.5169 -124.8488 -14.6402 114.1482 4.8691 -3.8276 61.7470 0.2611 0.4332 0.3411 -46.6069 13.0183 102.3801 -4.0774 49.4054 -6.1796 1.9479 -17.7984 -1.6450 5.9801 -14.5690 7.2519 -33.0207 -15.4962 87.4276 0.1563 40.3640 -8.2242 -10.1433 3.6551 0.3892 0.4728 -17.0994 17.0121 
0.0000 93.1000 0.0000 66.9101 -35.3719 -14.9225 -71.0060 -0.7718 87.9930 79.9235 70.3834 3.9341 5.5550 18.9016 5.1338 -114.3251 19.1632 147.2779 -160.4411 67.5992 -167.3092 -1.9586 -22.6453 -31.2252 -56.9078 27.3864 -142.8665 30.4394 -4.6577 -95.9340 -0.4341 -0.7718 0.7784 -2.6820 6.4862 40.5190 -129.9561 -8.6881 112.0778 3.7983 -2.9788 58.8136 0.6463 0.6526 0.4951 -43.0624 13.1549 100.2691 -4.9533 53.2381 -7.7502 1.8299 -18.5244 -1.4058 5.9546 -15.2132 11.0089 -33.0249 -18.7884 81.8378 -0.0095 40.3811 -9.1569 -12.6480 0.7620 0.4072 0.4800 -16.8118 19.7339 
0.0000 93.1000 0.0000 68.0287 -34.1964 -14.9221 -71.0077 -0.2105 87.9908 84.9677 71.8531 -0.0746 5.6801 20.3298 4.2072 -114.2323 18.9440 148.2768 -170.3248 68.4348 -158.2471 -1.7622 -21.9543 -31.1422 -56.9058 27.0436 -141.6559 29.9069 -4.7705 -97.0992 -0.2533 -0.3091 0.5693 -2.6209 6.6495 42.2069 -133.0397 -4.1365 111.1072 1.8306 -1.7750 54.0976 0.1534 0.0931 0.0277 -41.9787 13.5443 101.7219 -5.4747 54.0683 -9.3264 1.3339 -17.8290 -1.5795 5.1980 -14.9574 14.1343 -32.0345 -20.9898 81.6785 -0.0889 42.2193 -8.0489 -11.7460 0.7224 0.6536 0.8592 -15.1958 18.5836 
0.0000 93.1000 0.0000 68.8069 -31.9583 -12.8471 -70.9983 2.9045 87.9892 89.0008 72.2392 -4.3614 6.9291 21.2245 4.1835 -114.3690 19.8694 149.1795 -175.0969 68.9908 -154.3557 -1.0647 -21.4861 -31.1650 -57.2472 27.9086 -139.9649 28.2980 -4.7522 -98.2151 0.1599 2.3903 -1.0200 -1.8955 7.0164 42.8932 -135.1715 -0.9357 111.7958 -0.2878 -1.2183 50.1933 -1.7929 -2.4862 -1.9169 -40.7561 14.6625 101.8165 -6.4179 56.3621 -8.0984 2.4501 -18.8951 -3.5550 4.1744 -12.9989 16.1653 -32.0480 -23.1032 79.3394 1.1658 44.0010 -7.0005 -11.0508 1.3326 2.1903 0.4145 -15.7950 17.5225 
0.0000 93.1000 0.0000 69.7673 -29.7192 -10.6703 -71.0170 -1.1179 87.9794 89.9442 72.6774 -4.6226 5.2859 21.0840 4.3308 -113.2715 20.7259 150.1633 177.0576 69.3160 -146.2977 -1.9501 -21.9518 -31.7234 -56.9464 28.6847 -138.7990 28.3539 -5.5986 -99.2252 0.2009 -0.8248 0.4238 -2.8839 7.2026 43.1490 -135.7594 2.0169 110.9904 -0.3379 -0.7864 47.7704 0.7328 0.7739 0.7626 -39.5400 15.4569 101.1021 -5.5933 57.4295 -9.8803 1.6023 -18.7629 -1.6453 2.8520 -11.1737 14.5046 -33.5474 -26.1018 73.7036 1.0544 44.2885 -4.1157 -11.8053 1.1511 0.7453 1.9123 -16.6330 16.3169 
0.0000 93.1000 0.0000 70.1245 -28.0424 -10.0142 -71.0188 -1.1084 87.9825 85.9377 72.9071 -2.3863 5.5088 20.9320 3.7808 -114.3055 20.7318 150.3118 175.2843 69.0667 -144.0656 -2.2295 -21.6153 -32.0788 -57.2351 29.2281 -138.9203 26.4369 -6.4045 -99.9753 0.0886 -0.7461 0.5194 -3.0581 7.0844 43.3660 -136.3313 2.5288 110.0245 0.7405 -1.3370 45.1523 0.8438 0.7854 0.7718 -39.2950 15.2069 99.1854 -6.5858 58.1853 -10.5889 1.1439 -18.2048 -1.4033 3.6425 -12.3973 13.0383 -34.2454 -28.0489 71.1985 0.9940 46.1872 -2.9375 -12.4103 0.1261 0.6370 1.4422 -15.8385 15.5575 
0.0000 93.1000 0.0000 70.9468 -26.5530 -8.9720 -71.0149 -0.2782 87.9862 85.9881 72.4864 -2.0819 5.9488 21.0175 3.3230 -114.2946 20.8607 149.9752 174.2189 68.9087 -144.1545 -1.9757 -21.3306 -31.7405 -56.8388 29.3988 -138.8030 26.2185 -5.9260 -100.0383 0.1403 -0.0627 0.1416 -2.9363 7.0897 43.7982 -137.7575 1.8323 109.0024 0.8874 -1.9103 43.9739 0.4304 0.1138 0.1895 -38.2380 15.2839 98.0318 -7.0570 59.3346 -10.9586 0.8571 -18.3982 -1.8113 4.0962 -12.2556 11.6212 -35.1557 -28.8332 70.2375 0.9855 47.2021 -3.8085 -12.1325 -0.8321 1.1803 0.6515 -16.8507 16.5754 
